<svg xmlns="http://www.w3.org/2000/svg" width="50" height="50" viewBox="0 0 50 50" fill="none">
  <g clip-path="url(#clip0_0_201)">
    <path d="M20.0367 21.9352L26.8125 30.4648C26.8125 30.4648 25.5156 38.4617 20.8305 42.193C16.1453 45.9258 0 44.8586 0 44.8586C0 44.8586 0.296875 43.0508 0.859375 40.5281L8.25156 31.7648C8.56172 31.3977 8.18359 30.857 7.73203 31.0227L3.01328 32.7484C4.14141 29.4938 5.56953 26.4953 7.27891 25.1336C11.9641 21.4023 20.0367 21.9352 20.0367 21.9352ZM49.7289 7.42422L48.1773 5.4711C47.7484 4.93203 46.9648 4.84219 46.4266 5.2711L28.2641 19.1617L25.5969 15.8047C25.1992 15.3039 24.4141 15.3977 24.1445 15.9773L22.1656 20.2391L28.9414 28.7688L33.5352 27.7961C34.1602 27.6641 34.4273 26.9211 34.0305 26.4211L31.3672 23.068L49.5297 9.17735C50.068 8.74922 50.1578 7.96406 49.7289 7.42422Z" fill="white"/>
  </g>
  <defs>
    <clipPath id="clip0_0_201">
      <rect width="50" height="50" fill="white"/>
    </clipPath>
  </defs>
</svg>